<svg xmlns="http://www.w3.org/2000/svg" width="48" height="48" id="camera"><path fill="none" d="M0 0h48v48H0z"></path><path fill="#f04f40" d="m18.8 21 9.53-16.51C26.94 4.18 25.49 4 24 4c-4.8 0-9.19 1.69-12.64 4.51l7.33 12.69.11-.2zm24.28-3c-1.84-5.85-6.3-10.52-11.99-12.68L23.77 18h19.31zm.52 2H28.62l.58 1 9.53 16.5C41.99 33.94 44 29.21 44 24c0-1.37-.14-2.71-.4-4zm-26.53 4-7.8-13.5C6.01 14.06 4 18.79 4 24c0 1.37.14 2.71.4 4h14.98l-2.31-4zM4.92 30c1.84 5.85 6.3 10.52 11.99 12.68L24.23 30H4.92zm22.54 0-7.8 13.51c1.4.31 2.85.49 4.34.49 4.8 0 9.19-1.69 12.64-4.51L29.31 26.8 27.46 30z"></path></svg>